<svg width="286.984009" height="449.790039" viewBox="0 0 286.984 449.79" fill="none" xmlns="http://www.w3.org/2000/svg" xmlns:xlink="http://www.w3.org/1999/xlink">
	<desc>
			Created with Pixso.
	</desc>
	<defs/>
	<path id="Vector" d="M16.68 448.1C16.68 421.65 18.71 394.63 25.53 369.03C32.11 343.7 43.23 320.35 58.91 300.37C75.09 279.83 93.55 262.1 113.28 245.78C133.25 229.46 153.73 214.27 173.2 197.11C184.08 187.54 194.19 177.41 203.8 166.44C208.1 161.65 212.4 156.59 216.19 151.24C219.73 145.89 223.77 139.7 224.53 132.95C225.29 133.51 225.8 134.08 226.56 134.64C218.46 136.89 214.42 148.14 209.61 154.9C202.28 164.75 193.68 173.47 184.83 181.91C171.94 194.01 157.78 205.27 142.86 214.27C135.53 218.77 127.44 222.99 119.09 223.84C118.08 223.84 117.57 222.99 117.57 222.15C116.56 210.61 117.07 199.08 117.32 187.82C117.57 174.03 118.08 159.96 118.08 146.17C118.08 136.33 118.59 125.64 116.56 116.07C116.31 114.94 116.06 113.82 115.3 112.69C115.05 112.13 115.05 112.41 114.79 112.41C112.77 113.54 112.52 115.51 112.26 118.6C111.51 125.07 112.01 131.83 112.01 138.3C112.26 147.58 112.52 157.15 112.77 166.44C113.02 177.69 113.28 188.95 113.02 199.92C113.02 206.11 112.77 212.3 112.52 218.49C112.52 220.46 112.52 222.71 111.76 224.68C111 226.37 109.74 227.78 108.72 229.18C98.61 243.81 85.21 255.35 72.57 267.17C59.67 279.55 47.53 292.49 37.92 308.25C27.3 325.41 18.96 344.83 14.16 364.81C8.85 385.63 7.33 407.58 5.31 428.96C4.8 434.59 4.29 439.94 3.54 445.56C3.03 445 2.78 444.44 2.27 443.88C7.08 445.56 12.64 446.69 17.44 444.72C19.47 443.88 20.22 447.25 18.2 448.1C12.89 450.35 6.57 448.94 1.26 447.25C0.75 446.97 0 446.41 0 445.56C2.52 423.34 3.54 400.83 7.58 378.88C11.37 357.21 18.45 336.67 28.57 317.54C37.67 300.09 49.56 284.9 62.96 271.67C75.85 259.01 89.76 247.19 101.64 232.84C103.92 230.03 107.71 226.37 108.72 222.43C109.48 219.9 109.23 216.24 109.23 213.43C109.48 210.33 109.48 206.95 109.48 203.86C109.74 191.76 109.74 179.94 109.23 167.84C108.98 157.99 108.72 147.86 108.47 138.02C108.22 131.26 107.97 124.51 108.72 118.04C108.98 114.66 109.48 111.85 112.26 109.88C111.51 110.44 112.77 109.6 113.02 109.32C113.53 109.03 114.03 108.75 114.79 108.75C115.8 108.75 116.56 109.32 117.32 109.88C119.09 111.85 119.6 115.51 119.85 118.04C120.61 123.1 120.86 127.89 120.86 132.95C121.62 160.25 119.09 187.54 120.1 214.83C120.1 217.08 120.36 219.62 120.36 221.87C119.85 221.3 119.34 220.74 118.84 220.18C126.68 219.33 134.26 215.11 141.09 210.89C148.93 206.11 156.26 200.76 163.59 194.85C179.27 182.47 194.7 168.69 207.09 152.08C212.4 144.77 216.69 133.51 225.54 130.98C226.56 130.7 227.57 131.54 227.57 132.67C226.56 143.64 218.97 153.21 212.4 161.09C204.56 170.66 196.21 179.66 187.36 188.38C168.9 206.39 148.67 221.59 128.7 237.62C108.47 253.66 88.75 270.26 71.3 290.24C54.11 309.94 40.2 332.45 31.86 358.62C22.75 387.32 19.97 417.71 19.97 448.1C19.97 450.35 16.68 450.35 16.68 448.1Z" fill="#EDF0EF" fill-opacity="1.000000" fill-rule="nonzero"/>
	<path id="Vector" d="M118.08 199.64C131.99 197.1 143.37 186.13 151.2 173.47C159.3 160.81 164.61 144.77 164.1 129.01C163.85 121.13 161.57 113.82 157.78 107.34C153.48 100.03 147.41 93.84 144.88 85.68C141.85 75.83 143.62 64.29 143.87 54.16C144.12 45.44 143.37 36.72 140.08 28.56C134.01 13.08 121.11 2.11 105.69 3.23C97.6 3.79 89.25 7.45 83.19 13.36C78.13 18.43 75.09 25.46 73.83 32.78C72.31 40.37 72.31 48.25 72.82 56.13C73.32 64.01 74.59 71.61 73.07 79.21C70.54 92.71 60.43 101.43 54.61 112.97C46.77 128.45 49.56 148.14 55.88 163.34C59.42 171.5 64.22 179.38 70.29 185.29C77.88 192.6 86.73 195.42 96.59 196.82C101.14 197.39 105.44 198.23 109.74 199.64C111.76 200.2 110.75 203.58 108.98 203.01C99.12 199.92 88.75 200.48 79.39 195.98C71.55 192.32 65.23 185.57 60.18 177.97C50.31 163.34 45 143.64 47.53 125.35C48.54 117.75 51.58 111 55.62 105.09C59.42 99.46 63.72 94.12 67 87.93C70.8 80.05 71.05 71.89 70.29 63.17C69.53 55.01 69.03 46.85 69.78 38.69C70.54 31.09 72.31 23.49 76.36 17.02C80.66 9.99 86.98 5.48 94.06 2.67C108.98 -3.24 124.91 0.7 135.53 13.92C140.58 20.12 143.87 27.99 145.64 36.15C147.66 46 146.91 55.85 146.4 65.98C146.15 71.89 145.89 78.36 147.41 83.99C148.93 89.05 151.71 93.27 154.49 97.49C159.3 104.53 163.85 111.28 165.87 120.01C169.16 135.48 165.36 152.08 159.04 166.15C152.47 180.5 141.85 193.73 128.45 200.2C125.41 201.61 122.13 202.73 118.84 203.58C117.07 203.58 116.06 200.2 118.08 199.64Z" fill="#EDF0EF" fill-opacity="1.000000" fill-rule="nonzero"/>
	<path id="Vector" d="M117.07 178.25C125.16 173.75 131.23 165.87 136.03 157.71C141.09 149.55 145.14 140.83 149.18 132.11C150.19 130.14 152.97 131.83 151.96 133.8C147.66 142.8 143.37 152.08 138.06 160.53C133 168.69 126.68 176.56 118.59 181.35C116.82 182.47 115.05 179.38 117.07 178.25Z" fill="#EDF0EF" fill-opacity="1.000000" fill-rule="nonzero"/>
	<path id="Vector" d="M108.98 174.6C95.07 161.93 79.14 143.64 81.42 121.7C81.67 119.44 84.7 119.44 84.45 121.7C82.17 142.52 97.6 159.96 111 172.06C112.77 173.47 110.49 176 108.98 174.6Z" fill="#EDF0EF" fill-opacity="1.000000" fill-rule="nonzero"/>
	<path id="Vector" d="M112.77 111.29C114.29 82.58 103.67 54.16 109.48 25.46C109.99 23.21 113.02 24.06 112.52 26.31C106.95 54.73 117.57 82.87 116.06 111.29C115.8 113.54 112.77 113.54 112.77 111.29Z" fill="#EDF0EF" fill-opacity="1.000000" fill-rule="nonzero"/>
	<path id="Vector" d="M110.24 109.88C106.7 98.9 99.37 90.46 93.81 80.89C88.24 71.05 84.96 60.64 86.73 49.1C86.98 46.85 90.01 47.69 89.76 49.94C85.97 73.86 106.45 88.77 113.28 109.03C114.03 111 111 112.13 110.24 109.88Z" fill="#EDF0EF" fill-opacity="1.000000" fill-rule="nonzero"/>
	<path id="Vector" d="M116.06 107.91C129.71 100.59 130.47 81.18 130.47 66.26C130.47 64.01 133.76 64.01 133.5 66.26C133.5 82.3 132.49 102.84 117.57 111C115.8 111.85 114.29 109.03 116.06 107.91Z" fill="#EDF0EF" fill-opacity="1.000000" fill-rule="nonzero"/>
	<path id="Vector" d="M141.85 111.29C136.79 120.57 129.46 127.04 122.13 134.08C120.61 135.48 118.33 133.23 119.85 131.54C126.68 124.79 134.01 118.32 139.07 109.32C140.08 107.63 142.86 109.32 141.85 111.29Z" fill="#EDF0EF" fill-opacity="1.000000" fill-rule="nonzero"/>
	<path id="Vector" d="M106.95 138.3C97.85 131.26 91.53 120.57 85.21 110.44C83.94 108.47 86.73 106.78 87.99 108.75C94.06 118.32 99.87 128.45 108.47 135.2C109.99 136.33 108.47 139.42 106.95 138.3Z" fill="#EDF0EF" fill-opacity="1.000000" fill-rule="nonzero"/>
	<path id="Vector" d="M108.47 172.91C102.66 176 95.58 176.85 89 176.57C82.43 176.28 75.09 174.6 70.29 168.97C69.03 167.28 71.05 164.75 72.57 166.44C76.86 171.5 83.69 172.91 89.51 173.19C95.32 173.47 101.64 172.91 106.95 170.09C108.72 168.97 110.24 171.78 108.47 172.91Z" fill="#EDF0EF" fill-opacity="1.000000" fill-rule="nonzero"/>
	<path id="Vector" d="M86.98 149.55C78.63 151.52 68.27 151.52 61.95 144.49C60.43 142.8 62.7 140.55 64.22 141.96C69.78 148.14 79.14 147.86 86.22 146.18C88.24 145.89 89 149.27 86.98 149.55Z" fill="#EDF0EF" fill-opacity="1.000000" fill-rule="nonzero"/>
	<path id="Vector" d="M160.81 210.33C166.63 214.83 173.96 216.24 181.04 216.52C188.37 216.8 195.71 216.52 202.79 214.83C209.87 213.43 216.95 210.89 223.77 208.08C230.85 204.98 237.93 201.05 243.24 194.57C245.52 191.48 247.54 188.1 248.05 184.16C248.3 180.79 247.54 177.13 247.04 173.75C245.77 167.56 244.51 161.37 246.03 154.9C248.3 143.92 257.15 137.17 264.74 130.98C274.09 123.1 282.44 114.66 283.7 100.87C284.97 84.83 278.64 68.51 267.77 58.1C258.16 49.1 241.98 42.91 230.1 50.23C222.26 55.29 218.72 65.7 214.42 73.86C208.6 84.83 200.76 92.15 188.88 92.15C183.06 92.15 177.5 90.46 171.69 90.18C164.86 90.18 163.09 97.78 161.82 103.97C161.32 106.22 158.28 105.38 158.79 103.12C159.8 97.5 161.57 90.46 166.63 87.65C170.67 85.68 175.73 87.09 180.03 87.93C186.1 89.06 192.42 89.34 198.24 86.8C203.04 84.55 206.83 80.61 209.61 75.83C214.92 67.11 217.96 56.13 225.54 49.38C235.41 40.66 250.32 42.91 260.94 48.82C274.09 56.13 283.7 70.77 286.23 86.8C288.51 101.16 285.72 114.66 276.12 124.79C268.28 133.23 257.15 138.58 251.34 149.27C247.8 155.74 248.05 162.5 249.31 169.53C250.58 176 252.35 182.76 249.82 189.23C244 204.98 225.29 211.74 211.89 215.68C197.98 219.9 182.31 221.87 168.15 217.37C164.86 216.24 161.82 214.83 159.3 212.86C157.53 212.02 159.04 208.92 160.81 210.33Z" fill="#EDF0EF" fill-opacity="1.000000" fill-rule="nonzero"/>
	<path id="Vector" d="M253.11 84.83C223.27 91.31 197.98 123.95 202.79 158.56C203.04 160.81 200.01 161.65 199.75 159.4C194.7 122.82 220.74 88.21 252.35 81.18C254.12 81.18 255.13 84.55 253.11 84.83Z" fill="#EDF0EF" fill-opacity="1.000000" fill-rule="nonzero"/>
	<path id="Vector" d="M258.42 104.53C246.53 112.13 235.66 122.54 226.81 134.36C225.54 136.05 223.27 133.51 224.53 131.83C233.64 119.73 244.76 109.32 256.9 101.44C258.67 100.31 260.19 103.41 258.42 104.53Z" fill="#EDF0EF" fill-opacity="1.000000" fill-rule="nonzero"/>
	<path id="Vector" d="M237.43 164.47C233.13 168.12 227.31 170.09 222 170.94C216.69 171.78 211.13 171.78 205.82 170.09C203.8 169.53 204.81 166.15 206.58 166.72C211.38 168.12 216.69 168.12 221.5 167.28C226.56 166.44 231.61 164.75 235.66 161.09C237.43 159.96 238.95 163.06 237.43 164.47Z" fill="#EDF0EF" fill-opacity="1.000000" fill-rule="nonzero"/>
	<path id="Vector" d="M230.35 192.88C222.26 196.26 213.41 198.51 204.81 199.08C196.47 199.92 187.62 199.08 180.28 194.57C178.51 193.45 180.03 190.35 181.8 191.48C188.88 195.98 197.48 196.26 205.57 195.42C213.66 194.57 221.75 192.6 229.59 189.23C231.36 188.66 232.12 192.04 230.35 192.88Z" fill="#EDF0EF" fill-opacity="1.000000" fill-rule="nonzero"/>
	<path id="Vector" d="M183.06 113.25C177.75 123.1 175.73 134.92 175.73 146.18C175.73 156.87 177.5 168.12 183.06 177.13C184.33 179.1 181.55 180.79 180.28 178.82C174.47 169.53 172.44 157.43 172.44 146.18C172.44 134.08 174.72 121.7 180.28 111.29C181.55 109.6 184.33 111.29 183.06 113.25Z" fill="#EDF0EF" fill-opacity="1.000000" fill-rule="nonzero"/>
	<path id="Vector" d="M190.14 135.2C188.88 138.86 186.86 142.24 184.58 145.33C182.31 148.14 179.78 150.4 177.25 152.93C176.49 153.49 175.73 153.77 174.97 152.93C174.47 152.37 174.21 150.96 174.97 150.4C179.78 145.89 184.83 141.11 187.11 134.36C187.36 133.51 188.12 132.95 189.13 133.23C189.64 133.23 190.4 134.36 190.14 135.2Z" fill="#EDF0EF" fill-opacity="1.000000" fill-rule="nonzero"/>
	<path id="Vector" d="M234.4 110.16C226.56 112.13 219.22 114.94 211.13 115.79C210.37 115.79 209.62 114.94 209.62 114.1C209.62 112.97 210.37 112.41 211.13 112.41C218.72 111.57 226.05 108.75 233.38 106.78C235.66 106.22 236.42 109.88 234.4 110.16Z" fill="#EDF0EF" fill-opacity="1.000000" fill-rule="nonzero"/>
	<path id="Vector" d="M256.9 126.2C249.06 126.2 241.22 126.2 233.38 126.2C231.36 126.2 231.36 122.82 233.38 122.82C241.22 122.82 249.06 122.82 256.9 122.82C258.92 122.82 258.92 126.2 256.9 126.2Z" fill="#EDF0EF" fill-opacity="1.000000" fill-rule="nonzero"/>
</svg>
