<svg width="213.083298" height="459.327393" viewBox="0 0 213.083 459.327" fill="none" xmlns="http://www.w3.org/2000/svg" xmlns:xlink="http://www.w3.org/1999/xlink">
	<desc>
			Created with Pixso.
	</desc>
	<defs/>
	<path id="Vector" d="M3.16 450.81C23.64 407.13 47.41 365.12 69.66 322.56C90.65 282.24 113.66 243.04 130.35 200.2C134.9 188.72 138.94 176.68 141.98 164.64C145.01 152.04 146.02 138.88 150.07 126.56C149.31 126.84 148.81 127.4 148.05 127.68C156.14 130.76 163.22 135.8 171.56 138.04C171.06 137.48 170.8 136.92 170.3 136.36C170.3 146.44 167.26 156.52 164.23 166.04C160.94 176.4 156.9 186.2 153.36 196.28C149.31 207.2 146.28 218.68 141.98 229.6C137.68 241.08 132.62 252.28 127.31 263.2C116.19 285.88 103.29 307.72 91.15 329.84C78.51 352.52 65.87 374.92 52.47 396.77C44.88 409.09 37.04 421.41 28.95 433.45C25.16 439.05 21.11 444.65 17.07 450.25C15.8 451.93 14.28 454.17 12.51 455.29C9.48 457.25 7.2 453.61 5.69 451.37C4.42 449.41 1.89 451.37 2.91 453.05C4.93 456.13 7.71 460.05 11.76 459.21C15.3 458.37 17.57 454.73 19.59 451.93C27.18 441.57 34.51 430.93 41.59 420.01C56.51 397.05 70.42 373.25 83.82 349.44C97.22 325.64 110.88 302.12 123.52 278.04C135.4 255.08 145.77 231.28 153.61 206.36C157.15 194.6 161.95 183.4 165.75 171.92C169.54 160.72 173.33 148.68 173.59 136.64C173.59 135.8 173.08 135.24 172.32 134.96C163.98 133 156.64 127.68 148.81 124.6C148.05 124.32 147.03 124.88 146.78 125.72C143.24 136.36 141.98 147.84 139.7 158.76C137.43 169.96 133.63 180.88 129.84 191.52C122 213.08 112.14 234.08 101.77 254.24C80.79 295.4 58.53 336 36.79 376.89C24.15 400.69 11.5 424.77 0.12 449.13C-0.63 451.09 2.15 453.05 3.16 450.81Z" fill="#E9EBEA" fill-opacity="1.000000" fill-rule="nonzero"/>
	<path id="Vector" d="M150.83 127.12C150.07 112.28 153.86 97.44 159.93 84C159.17 84 158.16 84.28 157.4 84.28C159.68 87.08 160.44 91 160.94 94.36C161.7 98.84 161.95 103.6 161.95 108.36C161.95 116.48 161.2 124.32 161.2 132.44C161.2 134.68 164.23 134.68 164.23 132.44C164.23 123.76 164.99 115.08 164.99 106.4C164.74 98.28 164.74 88.2 159.68 81.76C158.92 80.92 157.66 81.2 157.15 82.04C151.08 95.76 146.78 111.16 147.54 126.84C147.79 129.36 150.83 129.36 150.83 127.12Z" fill="#E9EBEA" fill-opacity="1.000000" fill-rule="nonzero"/>
	<path id="Vector" d="M164.23 133.28C166.25 125.72 169.04 118.44 172.83 111.44C176.12 105.28 180.41 98 186.74 95.2C185.98 94.92 185.47 94.36 184.71 94.08C185.47 97.44 185.22 101.08 184.71 104.44C184.21 108.92 183.2 113.4 182.18 117.6C180.92 121.8 179.66 126 177.63 129.92C176.37 132.44 174.35 135.8 171.82 136.92C170.05 137.76 170.81 141.12 172.58 140.28C179.66 137.2 182.94 126.84 184.97 119.56C186.48 114.8 187.49 109.76 188 104.72C188.51 100.8 188.76 96.88 187.75 92.96C187.49 92.12 186.48 91.28 185.72 91.84C178.9 94.92 174.09 101.92 170.55 108.64C166.51 115.92 163.22 124.04 161.2 132.44C160.69 134.4 163.73 135.24 164.23 133.28Z" fill="#E9EBEA" fill-opacity="1.000000" fill-rule="nonzero"/>
	<path id="Vector" d="M163.98 90.72C165.49 87.64 167.01 84.56 168.78 81.48C170.55 78.4 172.57 75.04 175.1 72.8C176.11 71.96 177.13 71.4 177.88 71.68C177.63 71.68 178.39 71.96 178.39 71.68L178.9 71.96C179.15 72.24 179.4 72.52 179.65 72.8C179.65 72.8 179.91 73.36 179.91 73.08C180.41 74.48 180.41 75.88 180.41 77.56C180.41 79.8 180.16 81.76 179.91 84C179.4 88.48 178.64 92.68 178.64 97.16C178.64 99.4 181.68 99.4 181.68 97.16C181.68 92.96 182.44 88.76 182.94 84.56C183.19 82.32 183.45 79.8 183.45 77.56C183.45 75.88 183.45 73.92 182.69 72.24C181.42 68.6 177.88 67.48 174.85 68.88C171.56 70.56 169.29 74.2 167.26 77.28C164.99 80.92 162.97 84.84 160.94 88.76C160.18 90.72 162.97 92.68 163.98 90.72Z" fill="#E9EBEA" fill-opacity="1.000000" fill-rule="nonzero"/>
	<path id="Vector" d="M160.94 82.32C160.94 71.12 167.01 59.64 174.09 51.8C173.33 51.8 172.57 51.8 171.82 51.8C175.86 55.44 176.37 61.04 176.37 66.36C176.37 68.6 179.65 68.6 179.4 66.36C179.4 60.2 178.39 53.48 173.84 49.28C173.08 48.72 172.32 48.44 171.56 49.28C163.98 57.68 157.66 70 157.66 82.32C157.66 84.56 160.94 84.56 160.94 82.32Z" fill="#E9EBEA" fill-opacity="1.000000" fill-rule="nonzero"/>
	<path id="Vector" d="M180.16 70C184.21 63.56 189.01 57.4 194.83 52.92C194.07 52.64 193.31 52.36 192.55 51.8C194.07 58.52 193.56 65.8 192.55 72.52C191.54 78.96 190.02 86.24 186.23 91.28C184.96 92.96 187.24 95.48 188.5 93.8C192.8 88.2 194.83 80.64 195.84 73.64C196.85 66.36 197.35 58.52 195.84 51.24C195.58 50.12 194.32 49.56 193.56 50.12C187.24 55.16 182.18 61.6 177.88 68.6C176.11 70.28 178.9 71.96 180.16 70Z" fill="#E9EBEA" fill-opacity="1.000000" fill-rule="nonzero"/>
	<path id="Vector" d="M177.63 52.36C181.42 45.64 185.72 38.92 192.3 35.28C191.54 34.72 190.78 34.16 190.02 33.88C190.02 41.16 189.26 48.72 187.49 55.72C186.99 57.96 190.02 58.8 190.53 56.56C192.3 49 193.06 41.44 193.06 33.6C193.06 32.2 191.79 31.36 190.78 32.2C183.7 36.12 179.15 43.4 175.1 50.68C173.59 52.64 176.37 54.32 177.63 52.36Z" fill="#E9EBEA" fill-opacity="1.000000" fill-rule="nonzero"/>
	<path id="Vector" d="M149.82 127.96C148.55 124.88 148.3 120.96 148.05 117.6C147.79 112.56 147.54 107.52 147.79 102.2C148.05 97.44 148.3 92.68 149.31 87.92C149.82 85.4 150.57 81.48 152.09 79.8L152.34 79.8C152.85 79.8 152.85 80.08 153.1 80.36C154.62 81.76 155.38 84 156.14 85.96C156.89 87.92 159.68 86.24 158.92 84.28C157.65 81.48 155.63 76.16 152.09 76.44C149.06 76.44 147.79 80.64 147.03 83.16C145.52 87.92 145.01 93.24 144.76 98.28C144.25 103.88 144.25 109.76 144.5 115.36C144.76 120.12 145.01 125.44 146.78 129.92C147.79 131.88 150.57 130.2 149.82 127.96Z" fill="#E9EBEA" fill-opacity="1.000000" fill-rule="nonzero"/>
	<path id="Vector" d="M173.08 140C181.17 137.2 187.74 130.76 192.8 123.48C198.11 115.92 201.9 106.96 202.16 97.16C202.16 96.32 201.65 95.48 200.89 95.48C195.84 94.64 190.53 93.52 185.22 93.52C183.19 93.52 183.19 96.88 185.22 96.88C190.27 96.88 195.08 97.72 199.88 98.56C199.38 98 199.12 97.44 198.62 96.88C198.62 105.56 194.82 113.96 190.27 120.96C185.72 127.68 179.4 133.84 172.07 136.36C170.55 137.2 171.31 140.56 173.08 140Z" fill="#E9EBEA" fill-opacity="1.000000" fill-rule="nonzero"/>
	<path id="Vector" d="M158.41 82.88C156.9 73.64 157.66 63.84 159.42 54.88C160.18 50.96 161.2 46.76 162.97 43.12C163.22 42.56 163.72 42 163.98 41.44C164.48 40.88 164.74 40.6 164.99 40.32C165.75 39.76 166.25 39.76 167.01 40.04C167.26 40.04 168.02 40.6 168.53 41.16C169.29 42 169.79 42.56 170.55 43.68C172.32 46.48 173.59 49.56 174.85 52.64C175.61 54.6 178.39 52.92 177.63 50.96C175.86 46.2 173.59 40.32 169.29 37.52C166.51 35.84 163.72 36.68 161.7 39.2C159.17 42.56 157.91 46.76 156.9 50.96C155.63 56.28 154.87 61.6 154.62 67.2C154.37 72.8 154.37 78.68 155.13 84.28C155.63 85.96 158.67 85.12 158.41 82.88Z" fill="#E9EBEA" fill-opacity="1.000000" fill-rule="nonzero"/>
	<path id="Vector" d="M189.51 96.88C202.16 87.64 208.48 70.84 213.03 55.72C213.28 54.6 212.52 53.48 211.51 53.48C205.7 53.48 199.88 55.16 194.32 57.4C192.3 58.24 193.31 61.6 195.08 60.76C200.39 58.8 205.95 57.12 211.51 57.12C211.01 56.28 210.5 55.72 210 54.88C205.7 69.16 199.88 85.4 188 94.08C186.23 95.2 188 98 189.51 96.88Z" fill="#E9EBEA" fill-opacity="1.000000" fill-rule="nonzero"/>
	<path id="Vector" d="M176.87 47.88C176.87 46.76 176.87 45.92 176.87 44.8C176.87 44.24 176.87 43.68 176.87 43.4C176.87 43.12 176.87 42.84 176.87 42.84C176.87 42.84 176.87 42.28 176.87 42.56C176.87 42.28 176.87 42.28 176.87 42C177.13 40.04 177.63 37.8 178.14 35.84C178.39 34.72 178.9 33.88 179.15 32.76L179.15 32.48C179.15 32.2 179.4 31.92 179.4 31.64C179.65 31.08 179.91 30.52 180.16 30.24C180.92 28.56 181.93 26.88 182.94 25.2C183.19 24.92 183.45 24.36 183.7 24.08C183.7 23.8 183.95 23.8 183.95 23.52L184.21 23.24C184.71 22.68 185.22 21.84 185.72 21.28C186.23 20.72 186.73 20.16 187.24 19.88L187.49 19.6C187.75 19.32 188 19.32 188.25 19.04C188.25 19.04 188.5 19.04 188.5 18.76C188.76 18.76 189.01 18.48 189.26 18.48L189.52 18.48L189.77 18.48C189.77 18.48 190.02 18.48 190.02 18.76L190.27 19.04C190.27 19.04 190.27 19.32 190.53 19.32C190.53 19.32 190.53 19.6 190.78 19.6C190.78 19.88 190.78 19.32 190.78 19.32L190.78 19.6C190.78 19.88 191.03 20.44 191.03 20.72C191.03 21 191.03 21.28 191.03 21.28L191.03 21.56C191.03 22.68 191.03 23.8 191.03 24.92C190.78 28.28 190.27 31.64 189.77 35C189.26 37.24 192.3 38.08 192.8 35.84C193.56 32.48 194.07 29.12 194.32 25.76C194.57 23.52 194.57 21.28 194.07 19.32C193.56 16.52 191.54 14 188.5 14.84C185.72 15.68 183.45 18.48 181.93 21C179.4 24.64 177.63 28.56 176.11 32.48C174.34 37.24 173.33 42.28 173.84 47.32C173.84 48.16 174.6 49 175.36 49C176.11 49.56 176.87 48.72 176.87 47.88Z" fill="#E9EBEA" fill-opacity="1.000000" fill-rule="nonzero"/>
	<path id="Vector" d="M191.29 37.24C196.34 33.6 200.89 28.84 206.46 26.04C205.7 25.48 204.94 24.92 204.18 24.64C204.94 35 203.17 45.92 200.39 55.72C199.63 57.96 202.92 58.8 203.42 56.56C206.46 46.48 208.23 35.28 207.47 24.64C207.47 23.24 206.2 22.68 205.19 23.24C199.63 26.04 195.08 30.8 190.02 34.44C188 35.28 189.52 38.36 191.29 37.24Z" fill="#E9EBEA" fill-opacity="1.000000" fill-rule="nonzero"/>
	<path id="Vector" d="M192.8 15.96C195.33 11.48 197.61 7 200.89 3.36C200.64 3.64 200.14 3.64 199.88 3.92C200.39 3.92 200.89 3.92 201.65 3.92C201.15 3.36 200.64 3.08 200.14 2.52C201.15 9.8 200.89 17.08 200.89 24.36C200.89 26.6 204.18 26.6 203.93 24.36C203.93 16.8 203.93 8.96 202.92 1.4C202.92 0.56 201.91 0 201.4 0C200.64 0 199.88 0 199.38 0C198.62 0.28 198.11 1.12 197.61 1.95C197.1 2.8 196.34 3.36 195.84 4.2C193.56 7.28 191.79 10.64 190.02 14C189.01 16.24 191.54 17.92 192.8 15.96Z" fill="#E9EBEA" fill-opacity="1.000000" fill-rule="nonzero"/>
	<path id="Vector" d="M143.75 148.4C146.78 150.08 150.32 151.2 152.6 153.72C152.6 152.88 152.85 151.76 152.85 150.92C148.8 153.44 144.76 156.52 140.71 159.32C139.95 159.88 139.7 161 140.21 161.84C140.71 162.68 141.72 162.96 142.48 162.4C146.53 159.6 150.32 156.52 154.62 154C155.38 153.44 155.63 152.04 154.87 151.2C152.34 148.4 148.55 147 145.26 145.32C144.51 145.04 143.49 145.04 142.99 145.88C142.74 146.72 142.99 148.12 143.75 148.4Z" fill="#E9EBEA" fill-opacity="1.000000" fill-rule="nonzero"/>
	<path id="Vector" d="M156.39 192.36C155.63 190.68 154.87 189.28 154.12 187.6C153.61 186.76 153.1 185.64 152.85 184.8C152.85 184.8 152.85 184.52 152.6 184.52C152.6 184.24 152.35 183.96 152.35 183.68C152.09 183.12 152.09 182.84 152.09 182.28C152.09 182 152.09 182 152.09 181.72C152.09 182.28 152.09 181.44 152.09 181.44C152.09 181.16 152.09 181.16 152.09 180.88C152.09 181.44 152.09 180.88 152.09 180.6C152.35 180.32 151.84 180.6 151.84 180.6C151.84 180.6 151.84 180.6 152.09 180.6C152.35 180.6 152.6 180.32 153.1 180.32C152.85 180.32 153.1 180.32 153.36 180.32C153.61 180.32 153.86 180.32 154.12 180.32C155.13 180.32 155.89 180.32 156.9 180.32C158.41 180.32 160.18 180.6 161.7 180.6C163.72 180.6 163.72 177.24 161.7 177.24C160.18 177.24 158.67 176.96 156.9 176.96C155.13 176.96 153.1 176.68 151.33 177.24C146.78 178.64 149.06 184.8 150.58 188.16C151.59 190.12 152.6 192.08 153.61 194.04C153.86 194.88 155.13 195.16 155.89 194.6C156.64 194.04 156.64 193.2 156.39 192.36Z" fill="#E9EBEA" fill-opacity="1.000000" fill-rule="nonzero"/>
	<path id="Vector" d="M120.74 219.24C125.29 221.76 130.6 221.2 135.66 220.36C136.42 220.08 136.92 218.96 136.67 218.12C136.16 215.6 134.9 213.36 133.63 211.4C133.13 210.28 132.37 209.44 131.86 208.32C131.61 207.76 131.36 207.48 131.11 206.92C130.85 206.64 130.85 206.36 130.85 206.08C130.85 206.08 130.85 205.8 130.6 205.8C130.6 205.8 130.35 205.52 130.6 205.52C130.35 204.68 129.59 204.12 128.58 204.4C127.82 204.68 127.06 205.8 127.57 206.64C128.32 208.88 129.59 210.84 130.85 212.8C132.12 214.76 133.38 217 133.89 219.24C134.14 218.4 134.65 217.84 134.9 217C131.11 217.56 126.05 218.12 122.51 216.16C121.75 215.88 120.74 215.88 120.23 216.72C119.73 217.56 119.98 218.68 120.74 219.24Z" fill="#E9EBEA" fill-opacity="1.000000" fill-rule="nonzero"/>
	<path id="Vector" d="M138.69 242.76C138.44 242.2 138.19 241.36 137.68 240.8C137.43 240.52 137.43 240.24 137.17 239.96C137.17 239.68 136.92 239.68 136.92 239.4C136.92 239.4 136.92 239.4 136.92 239.12C136.42 238 136.16 236.88 135.91 235.76L135.91 235.48C135.91 235.2 135.91 234.92 135.91 234.92L135.91 234.64L135.91 234.36C135.91 234.08 136.16 234.08 136.16 233.8L136.42 233.52C136.42 233.52 136.67 233.52 136.67 233.24C136.67 233.24 136.92 233.24 136.92 232.96C137.17 232.96 137.43 232.68 137.68 232.68C137.93 232.68 137.93 232.68 138.19 232.68L138.44 232.68C139.2 232.68 140.21 232.68 140.97 232.68C141.73 232.68 142.48 231.84 142.48 231C142.48 230.16 141.73 229.32 140.97 229.32C138.19 229.32 134.9 229.32 133.13 232.12C131.86 234.36 132.62 237.44 133.38 239.68C133.89 241.36 134.64 243.32 135.66 245C136.16 245.84 137.17 246.12 137.93 245.56C138.94 244.44 138.94 243.6 138.69 242.76Z" fill="#E9EBEA" fill-opacity="1.000000" fill-rule="nonzero"/>
	<path id="Vector" d="M98.23 266.84C102.79 268.8 107.08 270.2 111.89 270.48C112.65 270.48 113.15 269.92 113.41 269.08C114.16 265.72 112.65 262.36 111.38 259.56C110.12 256.48 108.6 253.68 106.83 250.88C105.82 248.92 103.04 250.6 104.05 252.56C105.57 255.08 107.08 257.88 108.35 260.4C108.85 261.8 109.61 263.2 109.87 264.6C109.87 264.88 110.12 265.44 110.12 265.72C110.12 266 110.12 266 110.12 266.28L110.12 266.56C110.12 266.84 110.12 267.12 110.12 267.68C110.12 267.96 110.12 267.96 110.12 268.24C110.62 267.68 111.13 267.4 111.64 266.84C107.34 266.56 103.29 265.44 99.5 263.48C98.74 263.2 97.73 263.2 97.22 264.04C97.22 265.16 97.47 266.28 98.23 266.84Z" fill="#E9EBEA" fill-opacity="1.000000" fill-rule="nonzero"/>
	<path id="Vector" d="M111.89 295.68C110.62 292.04 108.85 289.24 108.35 285.6C108.35 285.88 108.35 285.32 108.35 285.32C108.35 285.04 108.35 285.04 108.35 284.76C108.35 284.48 108.35 284.2 108.35 284.48C108.35 284.2 108.35 284.2 108.6 283.92L108.85 283.64L109.11 283.64C109.36 283.64 109.61 283.36 110.12 283.36C110.37 283.36 110.37 283.36 110.62 283.36L110.88 283.36C111.63 283.36 112.65 283.36 113.4 283.36C114.42 283.36 115.17 283.36 116.19 283.64L116.44 283.64C116.69 283.64 116.69 283.64 116.94 283.64C117.2 283.64 117.45 283.64 117.96 283.92C119.98 284.48 120.74 281.12 118.71 280.56C117.2 280 115.43 280 113.91 280C112.14 280 110.12 280 108.35 280.56C107.59 280.84 106.83 281.4 106.07 281.96C105.31 282.8 105.06 283.64 105.06 284.76C105.06 286.72 105.57 288.96 106.32 290.92C106.83 292.04 107.34 293.44 107.84 294.56C108.09 295.12 108.35 295.4 108.35 295.96C108.35 296.24 108.6 296.24 108.6 296.52C108.35 295.96 108.6 296.8 108.6 296.8C108.85 297.64 109.61 298.2 110.62 297.92C111.63 297.36 112.14 296.52 111.89 295.68Z" fill="#E9EBEA" fill-opacity="1.000000" fill-rule="nonzero"/>
	<path id="Vector" d="M69.91 320.6C71.43 321.44 73.45 322.28 75.22 322.56C77.25 322.84 79.27 323.12 81.04 322.56C82.81 322 84.33 320.6 84.58 318.64C84.83 316.4 83.82 313.88 82.81 311.92C82.3 310.8 81.54 309.68 81.04 308.28C80.79 307.72 80.53 307.16 80.28 306.6C80.28 306.32 80.03 306.04 80.03 305.76C80.03 305.48 80.03 305.48 79.77 305.2C79.52 304.36 78.76 303.8 77.75 304.08C76.99 304.36 76.49 305.2 76.74 306.32C77.25 308.28 78.26 309.96 79.27 311.92C79.77 312.76 80.28 313.88 80.53 315L80.79 315.56C80.79 315.84 81.04 315.84 81.04 316.12C81.29 316.68 81.29 316.96 81.29 317.52L81.29 317.8C81.29 318.08 81.29 318.08 81.29 318.36C81.29 317.8 81.29 318.36 81.29 318.64C81.29 318.64 81.29 318.92 81.04 318.92C81.04 318.92 81.04 318.92 80.79 319.2C80.53 319.2 80.53 319.48 80.28 319.48L80.03 319.48C79.77 319.48 79.27 319.76 79.02 319.76L78.76 319.76C78.51 319.76 78.26 319.76 78 319.76C77.5 319.76 77.25 319.76 76.74 319.76C76.49 319.76 76.23 319.76 75.98 319.76L75.73 319.76C75.73 319.76 75.22 319.76 75.48 319.76C74.46 319.48 73.71 319.48 72.69 319.2C72.19 318.92 71.94 318.92 71.43 318.64C71.68 318.64 71.18 318.64 71.18 318.64C70.92 318.64 70.92 318.36 70.67 318.36C69.66 316.68 67.89 319.48 69.91 320.6Z" fill="#E9EBEA" fill-opacity="1.000000" fill-rule="nonzero"/>
	<path id="Vector" d="M74.46 362.05C74.21 361.77 74.21 361.49 73.96 361.49C73.96 361.49 73.71 361.2 73.71 360.92L73.45 360.64C72.95 359.8 72.44 358.96 71.94 358.12C71.43 357.28 70.92 356.16 70.42 355.32C70.42 355.04 70.17 354.76 70.17 354.76L70.17 354.48C69.91 353.92 69.91 353.64 69.66 353.08C69.66 352.8 69.66 352.8 69.66 352.52L69.66 352.24C69.66 351.96 69.66 351.96 69.66 351.68L69.66 351.4C69.66 351.12 69.41 351.68 69.66 351.68C69.66 351.68 69.66 351.68 69.66 351.4C69.15 352.24 69.91 351.12 69.41 351.68C69.66 351.68 69.15 351.68 69.15 351.68C69.15 351.68 69.15 351.68 69.41 351.68C69.41 351.68 69.91 351.4 69.91 351.68C69.91 351.68 69.41 351.68 69.66 351.68L69.91 351.68C70.17 351.68 70.17 351.68 70.42 351.68C70.92 351.68 71.18 351.68 71.68 351.68C72.69 351.68 73.45 351.96 74.46 351.96C74.21 351.96 74.72 351.96 74.97 351.96C75.22 351.96 75.48 351.96 75.73 351.96C76.23 351.96 76.74 352.24 77.25 352.24C77.75 352.24 78.51 352.52 79.02 352.52C79.77 352.8 80.79 352.24 81.04 351.4C81.29 350.56 80.79 349.44 80.03 349.16C78.51 348.88 76.99 348.6 75.48 348.32C73.45 348.04 71.43 347.76 69.41 348.04C64.6 348.88 67.38 355.88 68.9 358.68C69.91 360.64 71.18 362.61 72.69 364.29C73.71 365.97 75.98 363.72 74.46 362.05Z" fill="#E9EBEA" fill-opacity="1.000000" fill-rule="nonzero"/>
</svg>
