<svg id="logo" width="194.000000" height="32.000000" viewBox="0 0 194 32" fill="none" xmlns="http://www.w3.org/2000/svg" xmlns:xlink="http://www.w3.org/1999/xlink">
	<desc>
			Created with Pixso.
	</desc>
	<defs/>
	<rect id="logo" rx="-0.500000" width="95.000000" height="31.000000" transform="translate(0.500000 0.500000)" fill="#FFFFFF" fill-opacity="0"/>
	<path id="Vector" d="M1.91 4.75C0.79 3.84 0.1 1.71 0.12 0.63C0.13 0.45 0.23 0.3 0.39 0.24C1.39 -0.15 3.76 -0.18 5.16 0.96C6.43 2 7.11 4.05 7.44 5.47C7.53 5.86 7.21 6.22 6.81 6.18C5.25 6.01 2.94 5.6 1.91 4.75ZM15.28 27.74C15.28 27.39 15.56 27.12 15.9 27.1C21.76 26.84 25.14 22.92 25.14 17.48C25.14 12.03 21.76 8.11 15.9 7.85C15.56 7.84 15.28 7.56 15.28 7.22L15.28 2.1C15.28 1.75 15 1.47 14.65 1.47L10.79 1.47C10.44 1.47 10.16 1.75 10.16 2.1L10.16 7.22C10.16 7.56 9.88 7.84 9.53 7.85C3.67 8.11 0.29 12.03 0.29 17.48C0.29 22.92 3.67 26.84 9.53 27.1C9.88 27.12 10.16 27.39 10.16 27.74L10.16 31.37C10.16 31.72 10.44 32 10.79 32L14.65 32C15 32 15.28 31.72 15.28 31.37L15.28 27.74ZM27.13 32C26.78 32 26.5 31.72 26.5 31.37L26.5 8.64C26.5 8.3 26.78 8.02 27.13 8.02L30.81 8.02C31.16 8.02 31.44 8.3 31.44 8.64L31.44 10.45C31.44 10.52 31.49 10.57 31.55 10.57C31.59 10.57 31.63 10.55 31.65 10.51C31.9 10.09 33.6 7.48 37.46 7.48C42.94 7.48 45.69 12.2 45.69 17.48C45.69 22.75 42.94 27.48 37.46 27.48C33.78 27.48 32.1 25.35 31.84 24.98C31.81 24.95 31.78 24.93 31.74 24.93C31.67 24.93 31.62 24.99 31.62 25.05L31.62 31.37C31.62 31.72 31.34 32 30.99 32L27.13 32ZM47.43 17.48C47.43 23.01 50.53 27.48 56.93 27.48C63.21 27.48 65.17 23.18 65.7 21.46C65.82 21.09 65.53 20.75 65.15 20.75L61.28 20.75C60.98 20.75 60.72 20.96 60.62 21.24C60.3 22.07 59.4 23.66 57.11 23.66C54.28 23.66 53.01 21.81 52.65 19.24C52.6 18.88 52.89 18.57 53.26 18.57L65.44 18.57C65.77 18.57 66.04 18.31 66.05 17.98C66.06 17.81 66.06 17.63 66.06 17.48C66.06 11.95 63.18 7.48 56.93 7.48C50.68 7.48 47.43 11.95 47.43 17.48ZM83.33 8.02C83.68 8.02 83.96 8.3 83.96 8.64L83.96 18.57C83.96 21.84 84.62 23.3 86.63 23.3C88.82 23.3 89.99 21.66 89.99 17.84L89.99 8.64C89.99 8.3 90.27 8.02 90.61 8.02L94.48 8.02C94.82 8.02 95.1 8.3 95.1 8.64L95.1 26.31C95.1 26.66 94.82 26.93 94.48 26.93L90.8 26.93C90.45 26.93 90.17 26.66 90.17 26.31L90.17 23.95C90.17 23.89 90.12 23.84 90.06 23.84C90.02 23.84 89.98 23.87 89.96 23.91C89.76 24.41 88.4 27.48 84.87 27.48C81.85 27.48 80.25 26.11 79.47 23.95C79.44 23.89 79.38 23.84 79.31 23.84C79.25 23.84 79.19 23.88 79.16 23.94C78.88 24.5 77.2 27.48 73.73 27.48C68.98 27.48 67.7 24.02 67.7 19.66L67.7 8.64C67.7 8.3 67.98 8.02 68.33 8.02L72.19 8.02C72.54 8.02 72.82 8.3 72.82 8.64L72.82 18.57C72.82 21.84 73.47 23.3 75.48 23.3C77.68 23.3 78.84 21.66 78.84 17.84L78.84 8.64C78.84 8.3 79.12 8.02 79.47 8.02L83.33 8.02ZM36 11.29C32.9 11.29 31.44 14.06 31.44 17.48C31.44 20.9 32.9 23.66 36 23.66C39.11 23.66 40.57 20.9 40.57 17.48C40.57 14.06 39.11 11.29 36 11.29ZM56.93 11.29C59.19 11.29 60.24 12.64 60.68 14.59C60.76 14.96 60.46 15.3 60.08 15.3L53.48 15.3C53.09 15.3 52.79 14.94 52.9 14.56C53.45 12.63 54.68 11.29 56.93 11.29ZM10.16 22.86C10.16 23.2 9.88 23.48 9.54 23.45C6.72 23.14 5.41 20.7 5.41 17.48C5.41 14.25 6.72 11.82 9.54 11.51C9.88 11.47 10.16 11.76 10.16 12.1L10.16 22.86ZM20.02 17.48C20.02 20.7 18.72 23.14 15.9 23.45C15.56 23.48 15.28 23.2 15.28 22.86L15.28 12.1C15.28 11.76 15.56 11.47 15.9 11.51C18.72 11.82 20.02 14.25 20.02 17.48Z" fill="#056B53" fill-opacity="1.000000" fill-rule="evenodd"/>
	<path id="подбор плана питания" d="M133.94 5.26C134.61 5.26 135.08 5.26 135.4 5L135.92 5.61C135.32 6.19 134.45 6.16 133.24 6.2C131.88 6.26 131.25 7.16 131.11 8.85L131.19 8.85C131.64 8.03 132.48 7.66 133.38 7.66C134.91 7.66 136.09 8.75 136.09 10.81C136.09 12.86 134.92 14.13 133.17 14.13C131.42 14.13 130.24 12.87 130.24 10.45L130.24 9.75C130.24 6.83 131.23 5.32 133.22 5.27C133.48 5.26 133.72 5.26 133.94 5.26ZM121.53 10.76C121.53 12.79 120.34 14.13 118.56 14.13C116.79 14.13 115.6 12.79 115.6 10.76C115.6 8.71 116.79 7.37 118.56 7.37C120.34 7.37 121.53 8.71 121.53 10.76ZM143.24 10.76C143.24 12.79 142.05 14.13 140.28 14.13C138.51 14.13 137.31 12.79 137.31 10.76C137.31 8.71 138.51 7.37 140.28 7.37C142.05 7.37 143.24 8.71 143.24 10.76ZM145.78 16.45L144.78 16.45L144.78 7.45L145.75 7.45L145.75 8.49L145.87 8.49C146.09 8.15 146.48 7.37 147.76 7.37C149.42 7.37 150.56 8.68 150.56 10.74C150.56 12.82 149.42 14.13 147.78 14.13C146.52 14.13 146.09 13.35 145.87 12.99L145.78 12.99L145.78 16.45ZM109.92 14L108.92 14L108.92 7.45L114.06 7.45L114.06 14L113.06 14L113.06 8.39L109.92 8.39L109.92 14ZM123.37 15.87L122.37 15.87L122.37 13.06L122.91 13.06C123.44 12.5 123.67 11.87 123.83 10.04L124.05 7.45L128.21 7.45L128.21 13.06L129.22 13.06L129.22 15.87L128.21 15.87L128.21 14L123.37 14L123.37 15.87ZM116.6 10.76C116.6 12.07 117.22 13.23 118.56 13.23C119.91 13.23 120.52 12.07 120.52 10.76C120.52 9.45 119.91 8.27 118.56 8.27C117.22 8.27 116.6 9.45 116.6 10.76ZM138.32 10.76C138.32 12.07 138.93 13.23 140.28 13.23C141.62 13.23 142.24 12.07 142.24 10.76C142.24 9.45 141.62 8.27 140.28 8.27C138.93 8.27 138.32 9.45 138.32 10.76ZM147.64 8.27C146.42 8.27 145.77 9.26 145.77 10.72C145.77 12.21 146.43 13.23 147.64 13.23C148.9 13.23 149.55 12.12 149.55 10.72C149.55 9.34 148.92 8.27 147.64 8.27ZM124.82 10.04C124.68 11.41 124.51 12.45 124.05 13.06L127.21 13.06L127.21 8.39L124.99 8.39L124.82 10.04ZM131.25 10.81C131.25 12.27 131.98 13.23 133.17 13.23C134.36 13.23 135.08 12.28 135.08 10.81C135.08 9.37 134.35 8.56 133.15 8.56C131.99 8.56 131.27 9.37 131.25 10.81ZM126.85 25.11C126.64 25.54 126.05 26.15 124.91 26.15C123.66 26.15 122.67 25.41 122.67 24.14C122.67 22.64 124 22.37 125.21 22.21C126.41 22.06 126.9 22.1 126.9 21.62L126.9 21.58C126.9 20.74 126.44 20.25 125.52 20.25C124.56 20.25 124.04 20.76 123.81 21.24L122.86 20.9C123.37 19.7 124.5 19.37 125.48 19.37C126.32 19.37 127.91 19.6 127.91 21.68L127.91 26L126.9 26L126.9 25.11L126.85 25.11ZM140.6 25.11C140.4 25.54 139.8 26.15 138.66 26.15C137.42 26.15 136.42 25.41 136.42 24.14C136.42 22.64 137.75 22.37 138.97 22.21C140.16 22.06 140.65 22.1 140.65 21.62L140.65 21.58C140.65 20.74 140.2 20.25 139.27 20.25C138.32 20.25 137.79 20.76 137.57 21.24L136.61 20.9C137.13 19.7 138.25 19.37 139.24 19.37C140.08 19.37 141.66 19.6 141.66 21.68L141.66 26L140.65 26L140.65 25.11L140.6 25.11ZM170.45 25.11C170.25 25.54 169.65 26.15 168.51 26.15C167.26 26.15 166.27 25.41 166.27 24.14C166.27 22.64 167.6 22.37 168.81 22.21C170.01 22.06 170.5 22.1 170.5 21.62L170.5 21.58C170.5 20.74 170.05 20.25 169.12 20.25C168.16 20.25 167.64 20.76 167.42 21.24L166.46 20.9C166.97 19.7 168.1 19.37 169.09 19.37C169.92 19.37 171.51 19.6 171.51 21.68L171.51 26L170.5 26L170.5 25.11L170.45 25.11ZM109.92 26L108.92 26L108.92 19.45L114.06 19.45L114.06 26L113.06 26L113.06 20.39L109.92 20.39L109.92 26ZM115.67 26L115.32 26L115.32 25.06L115.56 25.06C116.35 25.06 116.57 24.54 116.65 22.35L116.77 19.45L121.14 19.45L121.14 26L120.13 26L120.13 20.39L117.73 20.39L117.63 22.72C117.53 24.87 117.11 26 115.67 26ZM129.74 19.45L130.75 19.45L130.75 22.26L133.89 22.26L133.89 19.45L134.89 19.45L134.89 26L133.89 26L133.89 23.2L130.75 23.2L130.75 26L129.74 26L129.74 19.45ZM147.88 26L146.88 26L146.88 19.45L152.02 19.45L152.02 26L151.02 26L151.02 20.39L147.88 20.39L147.88 26ZM154.87 19.45L154.87 24.51L158.02 19.45L159.18 19.45L159.18 26L158.18 26L158.18 20.93L155.04 26L153.86 26L153.86 19.45L154.87 19.45ZM162.3 20.39L160.14 20.39L160.14 19.45L165.45 19.45L165.45 20.39L163.31 20.39L163.31 26L162.3 26L162.3 20.39ZM173.35 19.45L174.35 19.45L174.35 22.26L177.49 22.26L177.49 19.45L178.49 19.45L178.49 26L177.49 26L177.49 23.2L174.35 23.2L174.35 26L173.35 26L173.35 19.45ZM181.34 19.45L181.34 24.51L184.5 19.45L185.65 19.45L185.65 26L184.65 26L184.65 20.93L181.51 26L180.34 26L180.34 19.45L181.34 19.45ZM192.39 26L191.43 26L191.43 23.33L189.68 23.33L188.16 26L187.07 26L188.67 23.2C187.88 22.93 187.43 22.29 187.43 21.39C187.43 20.19 188.28 19.45 189.7 19.45L192.39 19.45L192.39 26ZM189.58 22.4L191.43 22.4L191.43 20.37L189.7 20.37C188.91 20.37 188.43 20.76 188.43 21.39C188.43 22.02 188.86 22.4 189.58 22.4ZM123.68 24.19C123.68 24.89 124.26 25.25 125.06 25.25C126.25 25.25 126.9 24.45 126.9 23.62L126.9 22.71C126.73 22.91 125.59 23.03 125.16 23.08C124.38 23.18 123.68 23.42 123.68 24.19ZM137.43 24.19C137.43 24.89 138.01 25.25 138.81 25.25C140.01 25.25 140.65 24.45 140.65 23.62L140.65 22.71C140.48 22.91 139.34 23.03 138.92 23.08C138.13 23.18 137.43 23.42 137.43 24.19ZM167.28 24.19C167.28 24.89 167.86 25.25 168.66 25.25C169.85 25.25 170.5 24.45 170.5 23.62L170.5 22.71C170.33 22.91 169.19 23.03 168.76 23.08C167.98 23.18 167.28 23.42 167.28 24.19Z" fill="#1E1F1F" fill-opacity="1.000000" fill-rule="evenodd"/>
</svg>
