<svg id="mobile-logo" width="192.392090" height="32.000000" viewBox="0 0 192.392 32" fill="none" xmlns="http://www.w3.org/2000/svg" xmlns:xlink="http://www.w3.org/1999/xlink">
	<desc>
			Created with Pixso.
	</desc>
	<defs/>
	<rect id="logo" rx="-0.500000" width="95.000000" height="31.000000" transform="translate(0.500000 0.500000)" fill="#FFFFFF" fill-opacity="0"/>
	<path id="Vector" d="M1.91 4.75C0.79 3.84 0.1 1.71 0.12 0.63C0.13 0.45 0.23 0.3 0.39 0.24C1.39 -0.15 3.76 -0.18 5.16 0.96C6.43 2 7.11 4.05 7.44 5.47C7.53 5.86 7.21 6.22 6.81 6.18C5.25 6.01 2.94 5.6 1.91 4.75ZM15.28 27.74C15.28 27.39 15.56 27.12 15.9 27.1C21.76 26.84 25.14 22.92 25.14 17.48C25.14 12.03 21.76 8.11 15.9 7.85C15.56 7.84 15.28 7.56 15.28 7.22L15.28 2.1C15.28 1.75 15 1.47 14.65 1.47L10.79 1.47C10.44 1.47 10.16 1.75 10.16 2.1L10.16 7.22C10.16 7.56 9.88 7.84 9.53 7.85C3.67 8.11 0.29 12.03 0.29 17.48C0.29 22.92 3.67 26.84 9.53 27.1C9.88 27.12 10.16 27.39 10.16 27.74L10.16 31.37C10.16 31.72 10.44 32 10.79 32L14.65 32C15 32 15.28 31.72 15.28 31.37L15.28 27.74ZM27.13 32C26.78 32 26.5 31.72 26.5 31.37L26.5 8.64C26.5 8.3 26.78 8.02 27.13 8.02L30.81 8.02C31.16 8.02 31.44 8.3 31.44 8.64L31.44 10.45C31.44 10.52 31.49 10.57 31.55 10.57C31.59 10.57 31.63 10.55 31.65 10.51C31.9 10.09 33.6 7.48 37.46 7.48C42.94 7.48 45.69 12.2 45.69 17.48C45.69 22.75 42.94 27.48 37.46 27.48C33.78 27.48 32.1 25.35 31.84 24.98C31.81 24.95 31.78 24.93 31.74 24.93C31.67 24.93 31.62 24.99 31.62 25.05L31.62 31.37C31.62 31.72 31.34 32 30.99 32L27.13 32ZM47.43 17.48C47.43 23.01 50.53 27.48 56.93 27.48C63.21 27.48 65.17 23.18 65.7 21.46C65.82 21.09 65.53 20.75 65.15 20.75L61.28 20.75C60.98 20.75 60.72 20.96 60.62 21.24C60.3 22.07 59.4 23.66 57.11 23.66C54.28 23.66 53.01 21.81 52.65 19.24C52.6 18.88 52.89 18.57 53.26 18.57L65.44 18.57C65.77 18.57 66.04 18.31 66.05 17.98C66.06 17.81 66.06 17.63 66.06 17.48C66.06 11.95 63.18 7.48 56.93 7.48C50.68 7.48 47.43 11.95 47.43 17.48ZM83.33 8.02C83.68 8.02 83.96 8.3 83.96 8.64L83.96 18.57C83.96 21.84 84.62 23.3 86.63 23.3C88.82 23.3 89.99 21.66 89.99 17.84L89.99 8.64C89.99 8.3 90.27 8.02 90.61 8.02L94.48 8.02C94.82 8.02 95.1 8.3 95.1 8.64L95.1 26.31C95.1 26.66 94.82 26.93 94.48 26.93L90.8 26.93C90.45 26.93 90.17 26.66 90.17 26.31L90.17 23.95C90.17 23.89 90.12 23.84 90.06 23.84C90.02 23.84 89.98 23.87 89.96 23.91C89.76 24.41 88.4 27.48 84.87 27.48C81.85 27.48 80.25 26.11 79.47 23.95C79.44 23.89 79.38 23.84 79.31 23.84C79.25 23.84 79.19 23.88 79.16 23.94C78.88 24.5 77.2 27.48 73.73 27.48C68.98 27.48 67.7 24.02 67.7 19.66L67.7 8.64C67.7 8.3 67.98 8.02 68.33 8.02L72.19 8.02C72.54 8.02 72.82 8.3 72.82 8.64L72.82 18.57C72.82 21.84 73.47 23.3 75.48 23.3C77.68 23.3 78.84 21.66 78.84 17.84L78.84 8.64C78.84 8.3 79.12 8.02 79.47 8.02L83.33 8.02ZM36 11.29C32.9 11.29 31.44 14.06 31.44 17.48C31.44 20.9 32.9 23.66 36 23.66C39.11 23.66 40.57 20.9 40.57 17.48C40.57 14.06 39.11 11.29 36 11.29ZM56.93 11.29C59.19 11.29 60.24 12.64 60.68 14.59C60.76 14.96 60.46 15.3 60.08 15.3L53.48 15.3C53.09 15.3 52.79 14.94 52.9 14.56C53.45 12.63 54.68 11.29 56.93 11.29ZM10.16 22.86C10.16 23.2 9.88 23.48 9.54 23.45C6.72 23.14 5.41 20.7 5.41 17.48C5.41 14.25 6.72 11.82 9.54 11.51C9.88 11.47 10.16 11.76 10.16 12.1L10.16 22.86ZM20.02 17.48C20.02 20.7 18.72 23.14 15.9 23.45C15.56 23.48 15.28 23.2 15.28 22.86L15.28 12.1C15.28 11.76 15.56 11.47 15.9 11.51C18.72 11.82 20.02 14.25 20.02 17.48Z" fill="#056B53" fill-opacity="1.000000" fill-rule="evenodd"/>
</svg>
