<svg width="132.425171" height="160.949707" viewBox="0 0 132.425 160.95" fill="none" xmlns="http://www.w3.org/2000/svg" xmlns:xlink="http://www.w3.org/1999/xlink">
	<desc>
			Created with Pixso.
	</desc>
	<defs/>
	<path id="Vector" d="M81.67 42.84C94.57 50.68 107.47 61.32 114.55 75.88C121.12 89.6 119.6 105 111.26 117.6C103.67 129.08 92.29 137.48 81.17 143.92C68.78 151.48 55.12 157.36 40.96 159.88C31.1 161.56 19.72 162.12 11.63 154.84C4.3 148.4 1.52 138.04 0.51 127.96C-0.76 115.92 0.51 103.6 2.28 91.84C4.05 80.64 6.32 69.16 10.12 58.52C15.17 45.08 24.53 34.16 37.68 31.64C53.1 28.56 67.26 35.84 81.17 42C82.94 42.84 82.18 46.2 80.41 45.36C68.53 40.32 56.64 34.16 43.75 34.44C32.62 35 23.01 41.16 16.94 51.52C11.38 61.04 9.1 72.8 7.08 83.72C5.06 94.36 3.54 105.28 3.29 116.2C3.04 126.28 4.05 137.2 8.85 145.6C13.91 154.56 22.51 157.36 31.61 157.08C44.25 156.52 56.64 152.32 68.27 146.72C80.16 141.12 91.79 133.84 101.4 124.04C112.02 113.12 119.1 98.28 113.79 82.04C108.22 65.52 93.56 53.76 80.16 45.64C78.13 44.8 79.9 41.72 81.67 42.84Z" fill="#E9EBEA" fill-opacity="1.000000" fill-rule="nonzero"/>
	<path id="Vector" d="M81.42 41.72C84.96 43.4 89.01 44.52 92.8 43.4C95.83 42.56 98.36 40.04 100.39 37.24C104.94 30.8 107.47 22.39 110.5 14.83C112.02 10.91 113.79 6.99 116.32 3.91C117.08 4.75 117.58 5.87 118.34 6.71C105.44 17.07 85.72 24.08 83.44 44.24C83.19 46.48 80.16 45.64 80.41 43.4C82.94 22.12 103.17 14.83 116.82 3.91C118.34 2.79 119.86 5.31 118.85 6.71C114.04 13.15 111.77 21.84 108.73 29.12C105.7 36.12 101.65 44.24 94.57 47.04C90.02 48.72 85.21 47.6 80.92 45.64C78.64 44.24 79.4 40.88 81.42 41.72Z" fill="#E9EBEA" fill-opacity="1.000000" fill-rule="nonzero"/>
	<path id="Vector" d="M79.65 40.6C83.19 28.28 83.7 13.72 76.36 2.8C77.38 2.8 78.13 2.8 79.15 2.8C75.61 8.68 74.85 15.96 75.1 22.68C75.35 29.4 76.87 36.96 81.42 42C82.94 43.68 80.66 46.2 79.15 44.52C74.34 38.92 72.32 30.8 72.07 23.24C71.56 15.68 72.82 7.28 76.62 0.84C77.38 -0.29 78.64 -0.29 79.4 0.84C87.24 12.32 86.73 28 82.94 41.44C82.18 43.68 79.15 42.84 79.65 40.6Z" fill="#E9EBEA" fill-opacity="1.000000" fill-rule="nonzero"/>
	<path id="Vector" d="M81.93 43.12C95.83 57.4 118.09 54.32 129.72 38.08C129.97 38.92 130.22 40.04 130.48 40.88C126.43 39.48 122.39 37.52 118.09 35.84C114.04 34.44 109.74 33.04 105.7 34.72C103.67 35.56 102.92 32.2 104.94 31.36C113.54 28 123.4 34.44 131.24 37.52C132.5 38.08 132.75 39.48 131.99 40.32C119.35 58.24 94.82 60.76 79.65 45.36C78.13 43.96 80.41 41.44 81.93 43.12Z" fill="#E9EBEA" fill-opacity="1.000000" fill-rule="nonzero"/>
	<path id="Vector" d="M107.21 86.52C105.95 89.32 103.67 91 101.65 92.96C101.4 93.24 100.89 93.24 100.39 93.24C100.13 93.24 99.63 92.68 99.38 92.4C99.12 92.12 99.12 91.56 99.12 91C99.38 90.44 99.63 90.16 99.88 89.88C99.88 89.88 100.13 89.88 100.13 89.6C100.39 89.6 100.39 89.32 100.64 89.32C100.89 89.04 101.15 88.76 101.4 88.76C101.9 88.48 102.41 87.92 102.66 87.36C102.92 87.08 103.17 87.08 103.17 86.8L103.42 86.52C103.42 86.52 103.42 86.52 103.67 86.24C103.93 85.68 104.18 85.12 104.43 84.56C104.69 83.72 105.95 83.44 106.71 84C107.47 84.84 107.72 85.68 107.21 86.52Z" fill="#E9EBEA" fill-opacity="1.000000" fill-rule="nonzero"/>
	<path id="Vector" d="M82.43 66.64C81.17 67.76 80.16 68.88 79.15 70.28C79.15 70.28 79.15 70.56 78.89 70.56C78.89 70.84 78.64 70.84 78.64 71.12C78.39 71.4 78.13 71.68 77.88 72.24C77.38 73.08 76.87 73.64 76.62 74.48C76.11 75.32 75.1 75.6 74.34 75.04C73.58 74.48 73.33 73.36 73.84 72.52C75.61 69.44 77.63 66.36 80.16 64.12C80.41 63.84 80.92 63.56 81.17 63.56C81.67 63.56 81.93 63.84 82.18 64.12C82.94 64.68 83.19 65.8 82.43 66.64Z" fill="#E9EBEA" fill-opacity="1.000000" fill-rule="nonzero"/>
	<path id="Vector" d="M48.55 48.44C48.3 48.72 48.04 48.72 47.79 49C47.54 49 47.54 49.28 47.29 49.28C47.29 49.28 47.03 49.28 47.03 49.56C47.03 49.56 46.78 49.56 46.78 49.84L46.53 50.12C46.27 50.4 46.02 50.68 45.77 50.96L45.52 51.24C45.52 51.24 45.52 51.52 45.26 51.52C45.01 51.8 45.01 52.08 44.76 52.36C44.5 52.64 44.5 52.92 44.25 53.2C44.25 53.48 44 53.48 44 53.76L44 54.04C43.75 54.6 43.75 54.88 43.24 55.16C42.99 55.44 42.48 55.44 41.98 55.44C41.22 55.16 40.46 54.32 40.96 53.2C41.47 51.52 42.23 49.84 43.49 48.44C44.5 47.32 45.52 46.2 46.78 45.64C47.54 45.36 48.55 45.36 49.06 46.2C49.56 46.76 49.31 47.88 48.55 48.44Z" fill="#E9EBEA" fill-opacity="1.000000" fill-rule="nonzero"/>
	<path id="Vector" d="M82.18 92.96C80.41 95.2 78.64 97.44 76.11 98.84C75.35 99.12 74.34 99.12 73.84 98.28C73.58 97.44 73.58 96.32 74.34 95.76C74.85 95.48 75.35 95.2 75.86 94.64C75.86 94.64 75.86 94.64 76.11 94.64L76.36 94.36C76.62 94.08 76.87 93.8 77.12 93.52C78.13 92.68 78.89 91.56 79.65 90.44C80.16 89.88 81.42 89.88 81.93 90.44C82.94 91.28 82.94 92.4 82.18 92.96Z" fill="#E9EBEA" fill-opacity="1.000000" fill-rule="nonzero"/>
	<path id="Vector" d="M57.15 76.72C55.38 78.4 53.61 80.36 52.09 82.32C51.58 82.88 50.32 82.88 49.81 82.32C49.31 81.48 49.31 80.64 49.81 79.8C51.33 77.84 52.85 75.6 54.87 74.2C55.12 73.92 55.63 73.64 55.88 73.64C56.39 73.64 56.64 73.92 56.89 74.2C57.15 74.48 57.4 75.04 57.4 75.32C57.65 75.88 57.65 76.44 57.15 76.72Z" fill="#E9EBEA" fill-opacity="1.000000" fill-rule="nonzero"/>
	<path id="Vector" d="M81.42 119.56C78.13 122.36 75.1 125.72 71.56 128.52C70.8 129.08 70.04 129.36 69.28 128.52C68.78 127.96 68.53 126.56 69.28 126C72.57 123.2 75.61 119.84 79.15 117.04C79.9 116.48 80.66 116.2 81.42 117.04C81.93 117.6 82.18 119 81.42 119.56Z" fill="#E9EBEA" fill-opacity="1.000000" fill-rule="nonzero"/>
	<path id="Vector" d="M56.14 103.32C54.37 104.72 52.34 105.84 50.57 107.24C50.32 107.52 49.81 107.52 49.31 107.52C49.06 107.52 48.55 106.96 48.3 106.68C48.04 106.4 48.04 105.84 48.04 105.28C48.3 104.72 48.55 104.44 48.8 104.16C50.57 102.76 52.6 101.64 54.37 100.24C54.62 99.96 55.12 99.96 55.63 99.96C55.88 99.96 56.39 100.52 56.64 100.8C56.89 101.08 56.89 101.64 56.89 102.2C56.64 102.76 56.39 103.04 56.14 103.32Z" fill="#E9EBEA" fill-opacity="1.000000" fill-rule="nonzero"/>
	<path id="Vector" d="M30.6 76.44C28.83 79.52 26.8 82.32 25.29 85.4C24.78 86.24 23.77 86.52 23.01 85.96C22.25 85.4 22 84.56 22.51 83.44C24.02 80.36 26.05 77.56 27.82 74.48C28.32 73.64 29.33 73.36 30.09 73.92C30.6 74.48 31.1 75.6 30.6 76.44Z" fill="#E9EBEA" fill-opacity="1.000000" fill-rule="nonzero"/>
	<path id="Vector" d="M51.08 124.88C48.8 126.84 46.78 129.36 44.5 131.32C44.25 131.6 43.75 131.88 43.49 131.88C42.99 131.88 42.73 131.6 42.48 131.32C41.98 130.76 41.72 129.36 42.48 128.8C44.76 126.84 46.78 124.32 49.06 122.36C49.31 122.08 49.81 121.8 50.07 121.8C50.57 121.8 50.83 122.08 51.08 122.36C51.58 122.92 51.58 124.32 51.08 124.88Z" fill="#E9EBEA" fill-opacity="1.000000" fill-rule="nonzero"/>
	<path id="Vector" d="M30.85 102.76C28.83 105.28 27.06 107.52 25.04 110.04C24.53 110.6 23.27 110.6 22.76 110.04C22.25 109.2 22.25 108.36 22.76 107.52C24.78 105.28 26.81 102.76 28.58 100.24C29.08 99.68 30.35 99.68 30.85 100.24C31.61 101.08 31.61 101.92 30.85 102.76Z" fill="#E9EBEA" fill-opacity="1.000000" fill-rule="nonzero"/>
	<path id="Vector" d="M26.55 134.96C24.78 137.2 23.27 139.44 21.5 141.4C20.99 141.96 19.73 141.96 19.22 141.4C18.71 140.56 18.71 139.72 19.22 138.88C20.99 136.64 22.51 134.4 24.28 132.44C24.78 131.88 26.05 131.88 26.55 132.44C27.06 133.28 27.06 134.4 26.55 134.96Z" fill="#E9EBEA" fill-opacity="1.000000" fill-rule="nonzero"/>
	<path id="Vector" d="M40.97 146.44C40.46 146.72 39.95 147 39.45 147.56C39.45 147.56 39.45 147.56 39.2 147.56L38.94 147.84C38.69 148.12 38.44 148.4 38.18 148.68C37.17 149.52 36.41 150.64 35.66 151.76C35.15 152.32 33.89 152.32 33.38 151.76C32.87 150.92 32.87 150.08 33.38 149.24C35.15 147 36.92 144.76 39.45 143.36C40.21 143.08 41.22 143.08 41.72 143.92C41.98 144.76 41.72 145.88 40.97 146.44Z" fill="#E9EBEA" fill-opacity="1.000000" fill-rule="nonzero"/>
	<path id="Vector" d="M15.17 112.56C14.41 113.12 13.91 113.96 13.4 114.52L13.66 114.24C12.9 115.08 12.39 116.2 11.89 117.32C11.63 117.6 11.38 117.88 10.87 118.16C10.62 118.16 10.12 118.16 9.61 117.88C9.36 117.6 8.85 117.32 8.85 116.76C8.85 116.2 8.85 115.92 9.1 115.36C10.12 113.4 11.13 111.44 12.9 109.76C13.15 109.48 13.66 109.2 13.91 109.2C14.41 109.2 14.67 109.48 14.92 109.76C15.17 110.04 15.43 110.6 15.43 110.88C15.68 111.72 15.68 112.28 15.17 112.56Z" fill="#E9EBEA" fill-opacity="1.000000" fill-rule="nonzero"/>
	<path id="Vector" d="M29.59 50.96C27.56 53.48 26.05 56.28 23.77 58.24C23.52 58.52 23.01 58.8 22.76 58.8C22.25 58.8 22 58.52 21.75 58.24C21.24 57.68 20.99 56.28 21.75 55.72C24.02 53.76 25.79 50.96 27.56 48.44C28.07 47.88 29.33 47.88 29.84 48.44C30.35 49.28 30.34 50.12 29.59 50.96Z" fill="#E9EBEA" fill-opacity="1.000000" fill-rule="nonzero"/>
	<path id="Vector" d="M102.16 112.28C100.89 114.24 99.37 116.2 97.6 117.6C97.35 117.88 96.85 118.16 96.59 118.16C96.09 118.16 95.83 117.88 95.58 117.6C95.33 117.32 95.08 116.76 95.08 116.48C95.08 115.92 95.33 115.64 95.58 115.36C96.85 114.24 98.11 112.84 99.12 111.16L98.87 111.44C99.12 111.16 99.37 110.88 99.37 110.6C99.63 110.32 99.88 110.04 100.39 109.76C100.64 109.76 101.15 109.76 101.65 110.04C102.16 110.6 102.66 111.72 102.16 112.28Z" fill="#E9EBEA" fill-opacity="1.000000" fill-rule="nonzero"/>
	<path id="Vector" d="M82.69 41.72C86.48 37.8 90.27 33.88 93.56 29.68C94.06 28.84 95.33 29.12 95.83 29.68C96.59 30.52 96.34 31.36 95.83 32.2C92.55 36.4 88.75 40.32 84.96 44.24C84.46 44.8 83.44 44.8 82.69 44.24C82.18 43.68 82.18 42.56 82.69 41.72Z" fill="#E9EBEA" fill-opacity="1.000000" fill-rule="nonzero"/>
</svg>
